<?xml version="1.0" encoding="utf-8"?>
<!-- Generator: Adobe Illustrator 19.0.0, SVG Export Plug-In . SVG Version: 6.00 Build 0)  -->
<svg version="1.1" id="Layer_1" xmlns="http://www.w3.org/2000/svg" xmlns:xlink="http://www.w3.org/1999/xlink" x="0px" y="0px"
	 viewBox="0 0 64 62.3" style="enable-background:new 0 0 64 62.3;" xml:space="preserve">
<g>
	<g>
		<path d="M49.2,62.3c8.2,0,14.8-6.6,14.8-14.8s-6.7-14.8-14.8-14.8s-14.8,6.6-14.8,14.8S41,62.3,49.2,62.3z M49.2,34.6
			c7.1,0,12.8,5.7,12.8,12.8s-5.8,12.8-12.8,12.8s-12.8-5.7-12.8-12.8S42.1,34.6,49.2,34.6z"/>
		<path d="M23.7,34.3H3.5c-1.7,0-3.1,1.4-3.1,3.1v20.2c0,1.7,1.4,3.1,3.1,3.1h20.2c1.7,0,3.1-1.4,3.1-3.1V37.4
			C26.8,35.7,25.4,34.3,23.7,34.3z M24.8,57.6c0,0.6-0.5,1.1-1.1,1.1H3.5c-0.6,0-1.1-0.5-1.1-1.1V37.4c0-0.6,0.5-1.1,1.1-1.1h20.2
			c0.6,0,1.1,0.5,1.1,1.1V57.6z"/>
		<path d="M0,23.3c0,1.1,0.4,2.1,1.2,2.8c0.8,0.8,1.8,1.2,2.8,1.2s2.1-0.4,2.8-1.2l6.8-6.8l6.8,6.8c0.8,0.8,1.8,1.2,2.8,1.2
			s2.1-0.4,2.8-1.2c0.8-0.8,1.2-1.8,1.2-2.8c0-1.1-0.4-2.1-1.2-2.8l-6.8-6.8l6.8-6.8c0.8-0.8,1.2-1.8,1.2-2.8s-0.4-2.1-1.2-2.8
			C25.4,0.4,24.4,0,23.3,0s-2.1,0.4-2.8,1.2L13.6,8L6.8,1.2C6.1,0.4,5.1,0,4,0S1.9,0.4,1.2,1.2C0.4,1.9,0,2.9,0,4s0.4,2.1,1.2,2.8
			L8,13.6l-6.8,6.8C0.4,21.2,0,22.2,0,23.3z M2.6,21.9l8.2-8.2L2.6,5.4c-0.8-0.8-0.8-2,0-2.8C3,2.2,3.5,2,4,2c0.5,0,1,0.2,1.4,0.6
			l8.2,8.2l8.2-8.2C22.3,2.2,22.8,2,23.3,2s1,0.2,1.4,0.6c0.8,0.8,0.8,2,0,2.8l-8.2,8.2l8.2,8.2c0.8,0.8,0.8,2,0,2.8
			c-0.4,0.4-0.9,0.6-1.4,0.6c-0.5,0-1-0.2-1.4-0.6l-8.2-8.2l-8.2,8.2C5,25.1,4.5,25.3,4,25.3s-1-0.2-1.4-0.6
			C1.8,23.9,1.8,22.6,2.6,21.9z"/>
		<path d="M37.9,26.4h22.6c1.1,0,2-0.6,2.6-1.5c0.5-0.9,0.5-2.1,0-3L51.7,2.4c-0.5-0.9-1.5-1.5-2.6-1.5s-2,0.6-2.6,1.5L35.3,21.9
			c-0.5,0.9-0.5,2,0,3C35.8,25.8,36.8,26.4,37.9,26.4z M37,22.9L48.3,3.4c0.2-0.3,0.5-0.5,0.8-0.5c0.3,0,0.7,0.2,0.8,0.5l11.3,19.5
			c0.2,0.3,0.2,0.7,0,1c-0.2,0.3-0.5,0.5-0.8,0.5H37.9c-0.3,0-0.7-0.2-0.8-0.5S36.9,23.2,37,22.9z"/>
	</g>
</g>
</svg>
