<?xml version="1.0" encoding="utf-8"?>
<!-- Generator: Adobe Illustrator 19.0.0, SVG Export Plug-In . SVG Version: 6.00 Build 0)  -->
<svg version="1.1" id="Layer_1" xmlns="http://www.w3.org/2000/svg" xmlns:xlink="http://www.w3.org/1999/xlink" x="0px" y="0px"
	 viewBox="-194 201.7 89.9 75.5" style="enable-background:new -194 201.7 89.9 75.5;" xml:space="preserve">
<path d="M-124.2,237.6l-33,0c-0.9,0-1.8,0.1-2.6,0.2l19.2,19.6l-19.5,19.9h56v-18.8C-104,247.9-112.1,237.6-124.2,237.6z"/>
<circle cx="-140.6" cy="217.4" r="15.7"/>
<polygon points="-168.3,241 -171.6,237.7 -179.3,237.7 -186.1,237.7 -179.3,244.5 -175,248.9 -171.9,252.1 -176.3,252.1 
	-179.3,252.1 -194,252.1 -194,262.8 -179.3,262.8 -177.2,262.8 -172,262.8 -177.2,268.1 -179.4,270.3 -186.1,277.2 -179.4,277.2 
	-171.6,277.2 -171.6,277.2 -152.2,257.4 "/>
</svg>
