<?xml version="1.0" encoding="utf-8"?>
<!-- Generator: Adobe Illustrator 19.0.0, SVG Export Plug-In . SVG Version: 6.00 Build 0)  -->
<svg version="1.1" id="Layer_1" xmlns="http://www.w3.org/2000/svg" xmlns:xlink="http://www.w3.org/1999/xlink" x="0px" y="0px"
	 viewBox="0.5 -7.1 62 61.8" style="enable-background:new 0.5 -7.1 62 61.8;" xml:space="preserve">
<g>
	<path d="M24.4-1.2C14.5-1.2,6.5,7,6.5,16.8s8.1,17.9,17.9,17.9s17.9-8.1,17.9-17.9S34.3-1.2,24.4-1.2z M24.4,32.8
		c-8.8,0-16-7.2-16-16s7.2-16,16-16s16,7.2,16,16S33.2,32.8,24.4,32.8z"/>
	<path d="M25.4,7.9V6.8h-2v1.1c-4.2,0.5-7.5,3.8-7.9,7.9h-1.1v2h1.1c0.5,4.2,3.8,7.5,7.9,7.9v1.1h2v-1.1c4.2-0.5,7.5-3.8,7.9-7.9
		h1.1v-2h-1.1C32.9,11.6,29.6,8.4,25.4,7.9z M31.3,17.8c-0.4,3-2.9,5.5-5.9,5.9v-0.9h-2v0.9c-3.1-0.4-5.5-2.9-5.9-5.9h0.9v-2h-0.9
		c0.4-3.1,2.9-5.5,5.9-5.9v0.9h2V9.9c3.1,0.4,5.5,2.9,5.9,5.9h-0.9v2H31.3z"/>
	<path d="M60.6,44.5L47.9,31.8l-1.4,1.4L44,30.7c2.8-3.9,4.4-8.7,4.4-13.9c0-13.2-10.7-23.9-23.9-23.9s-24,10.8-24,23.9
		s10.7,23.9,23.9,23.9c5.2,0,9.9-1.6,13.9-4.4l2.5,2.5l-1.4,1.5L52.1,53c1.8,1.7,5.7,2.8,8.5,0C63.4,50,62.8,46.8,60.6,44.5z
		 M24.4,38.8C12.3,38.8,2.5,29,2.5,16.9S12.3-5,24.4-5s21.9,9.8,21.9,21.9C46.4,28.8,36.5,38.8,24.4,38.8z M39.9,35
		c1-0.9,2-1.8,2.8-2.8l2.4,2.4l-2.8,2.8L39.9,35z M59.2,51.5c-1.5,1.5-4.1,1.5-5.6,0L42.2,40.3l5.6-5.6L59.1,46
		C61.5,48.3,59.9,50.8,59.2,51.5z"/>
	<rect x="47.2" y="39.6" transform="matrix(0.7071 0.7071 -0.7071 0.7071 42.8139 -22.2326)" width="2" height="2"/>
	<rect x="50.1" y="42.4" transform="matrix(-0.7071 0.7071 -0.7071 -0.7071 117.9413 38.0047)" width="2" height="2"/>
	<rect x="52.9" y="45.3" transform="matrix(0.7071 0.7071 -0.7071 0.7071 48.4951 -24.5521)" width="2" height="2"/>
</g>
</svg>
